<?xml version="1.0" standalone="no"?>
<!DOCTYPE svg PUBLIC "-//W3C//DTD SVG 20010904//EN"
 "http://www.w3.org/TR/2001/REC-SVG-20010904/DTD/svg10.dtd">
<svg version="1.0" xmlns="http://www.w3.org/2000/svg"
 width="260.000000pt" height="260.000000pt" viewBox="0 0 260.000000 260.000000"
 preserveAspectRatio="xMidYMid meet">
<metadata>
Created by potrace 1.14, written by Peter Selinger 2001-2017
</metadata>
<g transform="translate(0.000000,260.000000) scale(0.100000,-0.100000)"
fill="#000000" stroke="none">
<path d="M1103 2258 c-98 -90 -310 -284 -470 -431 l-293 -269 0 -144 0 -145
63 3 62 3 5 116 5 115 404 372 c223 205 408 371 411 370 4 -2 171 -154 370
-338 200 -184 383 -352 407 -373 l43 -39 0 -114 0 -115 63 3 62 3 3 141 3 142
-33 27 c-18 15 -229 208 -470 429 -242 220 -443 402 -448 404 -5 2 -89 -70
-187 -160z"/>
<path d="M1025 1650 c-130 -20 -198 -56 -203 -108 -13 -127 88 -309 218 -392
47 -30 167 -76 176 -68 2 3 7 25 10 50 6 41 3 49 -31 94 -86 112 -111 242 -79
402 7 36 6 37 -91 22z"/>
<path d="M1653 1575 c-74 -16 -152 -54 -209 -101 -66 -54 -134 -168 -157 -265
-6 -25 -5 -27 44 -33 47 -6 53 -5 87 25 51 45 150 89 224 99 60 9 186 -1 211
-17 14 -8 2 117 -18 183 -8 28 -25 66 -38 85 -27 40 -52 44 -144 24z"/>
<path d="M665 1189 c-5 -14 -12 -18 -23 -13 -10 3 -64 9 -122 11 -127 6 -212
-11 -309 -62 -74 -39 -161 -109 -161 -130 0 -7 19 -27 42 -44 l41 -30 37 33
c51 46 114 81 179 100 55 16 182 21 239 10 27 -6 30 -9 22 -30 -8 -21 -7 -24
11 -24 42 0 200 33 197 41 -6 16 -130 159 -138 159 -5 0 -12 -9 -15 -21z"/>
<path d="M2410 1172 c-47 -8 -87 -17 -89 -18 -2 -2 2 -10 8 -18 19 -22 6 -33
-53 -47 -88 -19 -226 -7 -335 30 -52 17 -95 30 -96 29 -1 -2 -13 -23 -25 -47
-21 -43 -21 -45 -4 -58 28 -20 122 -53 199 -70 99 -21 260 -13 342 18 60 22
63 22 82 5 11 -10 22 -13 25 -8 8 13 76 189 76 197 0 8 -36 4 -130 -13z"/>
<path d="M1386 1100 c-11 -55 -7 -71 24 -107 39 -44 74 -115 90 -182 13 -54 9
-197 -6 -235 -7 -18 -3 -19 72 -14 82 6 172 34 205 64 35 32 17 159 -37 266
-52 102 -196 211 -310 234 -29 5 -32 4 -38 -26z"/>
<path d="M1199 994 c-33 -36 -132 -80 -208 -94 -65 -12 -163 -6 -210 12 l-24
9 6 -73 c6 -86 38 -183 70 -216 22 -22 27 -22 90 -12 190 30 323 135 386 306
28 72 27 80 -10 88 -55 11 -75 7 -100 -20z"/>
<path d="M340 530 l0 -220 948 2 947 3 3 218 2 217 -65 0 -64 0 -3 -152 -3
-153 -817 -3 -818 -2 0 155 0 155 -65 0 -65 0 0 -220z"/>
</g>
</svg>
